<svg width="160" height="160" viewBox="0 0 160 160"


fill="none" xmlns="http://www.w3.org/2000/svg">
<style>
    path {
      fill: black;
    }
    @media (prefers-color-scheme: dark) {
      path {
        fill: white;
      }
    }
  </style>
<path d="M82.5 15C65.9296 15.0182 50.043 21.6088 38.3259 33.3259C26.6088 45.043 20.0182 60.9296 20 77.5V130.206C20.0033 132.803 21.0362 135.292 22.8722 137.128C24.7081 138.964 27.1973 139.997 29.7937 140H82.5C99.076 140 114.973 133.415 126.694 121.694C138.415 109.973 145 94.076 145 77.5C145 60.924 138.415 45.0268 126.694 33.3058C114.973 21.5848 99.076 15 82.5 15ZM55 87.5C53.5166 87.5 52.0666 87.0601 50.8332 86.236C49.5999 85.4119 48.6386 84.2406 48.0709 82.8701C47.5032 81.4997 47.3547 79.9917 47.6441 78.5368C47.9335 77.082 48.6478 75.7456 49.6967 74.6967C50.7456 73.6478 52.082 72.9335 53.5368 72.6441C54.9917 72.3547 56.4997 72.5032 57.8701 73.0709C59.2406 73.6386 60.4119 74.5999 61.236 75.8332C62.0601 77.0666 62.5 78.5166 62.5 80C62.5 81.9891 61.7098 83.8968 60.3033 85.3033C58.8968 86.7098 56.9891 87.5 55 87.5ZM82.5 87.5C81.0166 87.5 79.5666 87.0601 78.3332 86.236C77.0999 85.4119 76.1386 84.2406 75.5709 82.8701C75.0032 81.4997 74.8547 79.9917 75.1441 78.5368C75.4335 77.082 76.1478 75.7456 77.1967 74.6967C78.2456 73.6478 79.582 72.9335 81.0368 72.6441C82.4917 72.3547 83.9997 72.5032 85.3701 73.0709C86.7406 73.6386 87.9119 74.5999 88.736 75.8332C89.5601 77.0666 90 78.5166 90 80C90 81.9891 89.2098 83.8968 87.8033 85.3033C86.3968 86.7098 84.4891 87.5 82.5 87.5ZM110 87.5C108.517 87.5 107.067 87.0601 105.833 86.236C104.6 85.4119 103.639 84.2406 103.071 82.8701C102.503 81.4997 102.355 79.9917 102.644 78.5368C102.933 77.082 103.648 75.7456 104.697 74.6967C105.746 73.6478 107.082 72.9335 108.537 72.6441C109.992 72.3547 111.5 72.5032 112.87 73.0709C114.241 73.6386 115.412 74.5999 116.236 75.8332C117.06 77.0666 117.5 78.5166 117.5 80C117.5 81.9891 116.71 83.8968 115.303 85.3033C113.897 86.7098 111.989 87.5 110 87.5Z" />
</svg>
